<svg xmlns="http://www.w3.org/2000/svg" viewBox="0 0 800 500" role="img" aria-labelledby="title desc">
  <title id="title">Demo property image 2</title>
  <desc id="desc">Stylized apartment building illustration for property listings</desc>
  <defs>
    <linearGradient id="bg" x1="0" y1="0" x2="0" y2="1">
      <stop offset="0%" stop-color="#ecfccb"/>
      <stop offset="100%" stop-color="#d9f99d"/>
    </linearGradient>
  </defs>
  <rect width="800" height="500" rx="36" fill="url(#bg)"/>
  <rect x="210" y="120" width="380" height="300" rx="24" fill="#166534" opacity="0.95"/>
  <rect x="250" y="160" width="70" height="70" rx="8" fill="#dcfce7"/>
  <rect x="340" y="160" width="70" height="70" rx="8" fill="#dcfce7"/>
  <rect x="430" y="160" width="70" height="70" rx="8" fill="#dcfce7"/>
  <rect x="520" y="160" width="30" height="70" rx="8" fill="#dcfce7"/>
  <rect x="250" y="250" width="70" height="70" rx="8" fill="#dcfce7"/>
  <rect x="340" y="250" width="70" height="70" rx="8" fill="#dcfce7"/>
  <rect x="430" y="250" width="70" height="70" rx="8" fill="#dcfce7"/>
  <rect x="520" y="250" width="30" height="70" rx="8" fill="#dcfce7"/>
  <rect x="360" y="340" width="80" height="80" rx="10" fill="#ffffff"/>
  <circle cx="675" cy="95" r="48" fill="#fbbf24" opacity="0.9"/>
  <text x="40" y="70" font-family="Segoe UI, Arial, sans-serif" font-size="34" font-weight="700" fill="#166534">Property Demo 02</text>
</svg>

