<svg xmlns="http://www.w3.org/2000/svg" viewBox="0 0 800 500" role="img" aria-labelledby="title desc">
  <title id="title">Demo property image 3</title>
  <desc id="desc">Stylized commercial building illustration for property listings</desc>
  <defs>
    <linearGradient id="bg" x1="0" y1="0" x2="1" y2="1">
      <stop offset="0%" stop-color="#fae8ff"/>
      <stop offset="100%" stop-color="#fbcfe8"/>
    </linearGradient>
  </defs>
  <rect width="800" height="500" rx="36" fill="url(#bg)"/>
  <rect x="170" y="110" width="460" height="320" rx="24" fill="#6b21a8" opacity="0.95"/>
  <rect x="215" y="155" width="90" height="60" rx="10" fill="#f5d0fe"/>
  <rect x="325" y="155" width="90" height="60" rx="10" fill="#f5d0fe"/>
  <rect x="435" y="155" width="90" height="60" rx="10" fill="#f5d0fe"/>
  <rect x="545" y="155" width="40" height="60" rx="10" fill="#f5d0fe"/>
  <rect x="215" y="240" width="90" height="60" rx="10" fill="#f5d0fe"/>
  <rect x="325" y="240" width="90" height="60" rx="10" fill="#f5d0fe"/>
  <rect x="435" y="240" width="90" height="60" rx="10" fill="#f5d0fe"/>
  <rect x="545" y="240" width="40" height="60" rx="10" fill="#f5d0fe"/>
  <rect x="370" y="330" width="60" height="100" rx="10" fill="#ffffff"/>
  <path d="M95 455 H705" stroke="#86198f" stroke-width="12" stroke-linecap="round" opacity="0.28"/>
  <text x="40" y="70" font-family="Segoe UI, Arial, sans-serif" font-size="34" font-weight="700" fill="#86198f">Property Demo 03</text>
</svg>

